<?xml version="1.0" encoding="utf-8"?>
<!-- Generator: Adobe Illustrator 25.4.1, SVG Export Plug-In . SVG Version: 6.00 Build 0)  -->
<svg version="1.1" id="Layer_1" xmlns="http://www.w3.org/2000/svg" xmlns:xlink="http://www.w3.org/1999/xlink" x="0px" y="0px"
	 viewBox="0 0 2250 411.6" style="enable-background:new 0 0 2250 411.6;" xml:space="preserve">
<style type="text/css">
	.st0{fill:#231F20;}
	.st1{fill:#000005;}
	.st2{fill:#030000;}
	.st3{fill:#020207;}
	.st4{fill:#2C2829;}
	.st5{fill:#262223;}
	.st6{fill:#2D292A;}
	.st7{fill:#2E2A2B;}
	.st8{fill:#302C2D;}
	.st9{fill:#2F2B2C;}
	.st10{fill:#2B2828;}
	.st11{fill:#292526;}
	.st12{fill:#2A2627;}
	.st13{fill:#2A2728;}
	.st14{fill:#2B2728;}
	.st15{fill:#322E2F;}
	.st16{fill:#221F20;}
	.st17{fill:#EAEAEA;}
	.st18{fill:#282425;}
	.st19{fill:#2E2B2C;}
	.st20{fill:#302C2E;}
	.st21{fill:#2D2A2B;}
	.st22{fill:#2D2A2A;}
	.st23{fill:#252223;}
	.st24{fill:#232122;}
</style>
<g id="Layer_1_00000163756946090452480370000004839135808350526394_">
	<g>
		<path class="st0" d="M859.4,1.4c-0.1-0.4-0.2-0.9-0.2-1.4c4,0,7.9,0,11.9,0c0,0.9-0.1,1.8-0.1,2.6C866.9,3.5,863,3.8,859.4,1.4z"
			/>
		<path class="st1" d="M699.6,31.3c-0.1,0.4-0.3,0.8-0.4,1.1c-5.1,14.5-9.1,29.3-13.7,44c0,0.1,0,0.1-0.1,0.2
			c-0.7,2.9-1.8,5.7-2.6,8.6c-0.1,0.4-0.2,0.7-0.3,1.1c-4.6,13.4-8.1,27.2-12.8,40.6v0.1l0,0c-0.4,3.1-1.5,5.9-2.4,8.9
			c-0.1,0.2-0.2,0.5-0.2,0.7c-3.6,10.8-6.2,21.9-10.3,32.5c-0.1,0.2-0.2,0.5-0.3,0.7c-0.5,1-1.1,2-1.3,3.1c-0.5,0-1,0-1.5,0.2
			c-0.1,0.8-0.3,1.5-0.4,2.3c0.2,1,0.5,1.6,0.9,2c-0.6,2.8-1.1,5.7-2,8.5c-0.1,0.2-0.1,0.4-0.2,0.6c-4.8,14.4-9,29-13.4,43.6
			c-0.1,0.4-0.2,0.7-0.3,1.1c-0.7,3.3-0.8,7-4.4,8.8l0,0h-0.1c-11.7,38.1-23.6,76.2-35,114.4c-1.6,5.2-3.7,5.6-8.2,4.3
			c-18.4-5.5-35.7-13.5-51.9-23.5c-13.5-8.4-23-20.3-28.8-35c-7.6-19.4-13-39.5-18.8-59.5l0,0l0,0c-4-2.5-3.9-6.9-5-10.8
			c-0.1-0.2-0.2-0.5-0.3-0.7c-5.2-13.8-8.5-28.2-13.3-42.1c-0.1-0.3-0.2-0.6-0.3-0.9c-0.8-2.6-1.8-5.1-2.4-7.7
			c0-0.2-0.1-0.4-0.1-0.6h1.7l-4.4-15.6c-2.6,5.4-3.4,10.6-4.5,15.6h1.7c-0.1,0.2-0.1,0.5-0.2,0.7c-0.6,2.5-1.2,4.9-1.8,7.4
			c0,0.2-0.1,0.3-0.1,0.5c-4.4,13.8-6.7,28.3-11.5,42v0.1c-1,4-1.2,8.4-3.9,11.7c-0.4,0.5-0.8,1-1.3,1.4l0,0l0,0
			c-6.4,24.8-12.7,49.7-19.1,74.5c-3.3,12.7-6.8,25.4-9.9,38.2c-0.9,3.8-2.2,5-6.2,4.2c-24.7-5.3-46.9-15.8-66.1-32.2
			c-8.3-7.1-14.4-15.9-18.8-25.9c-8.2-19-13.3-38.9-18.6-58.8c-0.5-0.9-1.1-1.7-1.8-2.4c-0.2-0.1-0.3-0.3-0.5-0.4c0,0,0,0-0.1-0.1
			c-1.5-1.7-1.6-3.9-1.9-6.1c0-0.1,0-0.3,0-0.4c-0.1-0.4-0.2-0.8-0.3-1.2c0-0.1-0.1-0.2-0.1-0.3c-0.2-0.6-0.5-1.2-0.7-1.7
			c-4.8-13.9-8.5-28.2-12.7-42.3c0-0.1-0.1-0.3-0.1-0.4c-1-3.2-1.6-6.5-2.8-9.7c0-0.1-0.1-0.2-0.1-0.3c-3.5-12.6-7.8-25.1-10.8-37.8
			c-0.2-0.9-0.3-1.9-0.7-2.8c0-0.1-0.1-0.2-0.1-0.3c-0.1-0.2-0.2-0.4-0.3-0.6c-0.1-0.1-0.1-0.2-0.2-0.3c-1-1.9-1.3-4-1.5-6.1
			c0-0.2,0-0.3-0.1-0.5c-0.1-0.4-0.2-0.8-0.3-1.1c0,0,0,0,0-0.1c-0.2-0.7-0.5-1.3-0.8-1.9c-4.1-12-7.7-24.2-10.7-36.5
			c-0.2-1-0.3-2-0.7-2.9c0,0,0-0.1-0.1-0.1c-0.1-0.2-0.2-0.4-0.3-0.6c-0.1-0.1-0.1-0.2-0.2-0.4c-1.2-2.2-1.2-4.7-2-7
			c-0.1-0.2-0.2-0.5-0.3-0.7c0,0,0,0,0-0.1s-0.1-0.2-0.1-0.3C251.6,62,245.9,48.2,235.3,37c-1.5-1.6-3.2-3.1-4.8-4.6
			c-0.5-0.4-0.9-0.9-1.4-1.3c-3.4-6-3.1-6.6,3.5-6.6c32.8,0,65.7,0,98.5-0.1c4.2,0,6.7,1.3,7.5,5.5c0.3,1.1,0.6,2.3,0.9,3.4
			c3.7,14.1,8.1,28,11.3,42.3c0.1,0.3,0.2,0.6,0.3,0.9c0.9,3,2.2,5.8,2.3,9c0,0.1,0,0.1,0,0.2c3.8,13,7.4,26,10.5,39.1
			c0.2,0.8,0.5,1.6,0.7,2.3c0.8,3,1.5,6,2.2,8.9c0.2,0.8,0.4,1.6,0.6,2.4c4.3,12.7,6.9,25.9,10.9,38.7c0.1,0.2,0.1,0.5,0.2,0.7
			c0.8,2.7,1.5,5.5,2.2,8.2l0,0c3.6,14.8,7.7,29.5,11.8,44.1c0.1,0.3,0.2,0.5,0.3,0.8c1,3.2,1.1,6.7,2.1,10v0.1c1,2.7,1.8,5.4,2,7.9
			c0.1-2.5,1.1-5.2,2-7.9v-0.1c1.1-3.3,1.1-6.7,2-10c0.1-0.3,0.1-0.5,0.2-0.8c4.3-14.5,7.4-29.2,11.4-43.8c0.1-0.2,0.1-0.4,0.2-0.7
			c0.5-2.6,1.3-5.2,1.8-7.8c0-0.1,0-0.2,0.1-0.3c3.6-13.1,6.6-26.3,10.5-39.2c0.2-0.8,0.4-1.6,0.6-2.4c0.7-3,1.1-6,2-9
			c0.2-0.8,0.5-1.7,0.9-2.5c2.3-11.8,5.4-23.4,8.5-35.1c0.5-1.2,0.7-2.5,0.8-3.8c0.2-2.9-0.2-5.8,0.1-8.7c0-0.2,0-0.5-0.1-0.7
			c-1.6-16.4-6.9-31.3-17.7-43.9c-0.4-0.4-0.7-0.8-1.1-1.3c-3.5-6.1-3.2-6.8,3.2-6.8c32,0,64,0.1,96-0.1c4.9,0,6.4,1.8,5.2,6.2
			c-0.2,0.7-0.3,1.4-0.4,2.2c-1.7,10,1.2,19.7,3.2,29.4c0.9,4.5,2.3,8.8,3.7,13.2c0.1,0.4,0.2,0.8,0.3,1.2c0.9,3,2,5.8,2.4,8.9l0,0
			c4.2,13.4,8.2,26.9,12,40.4c0.2,0.5,0.4,0.9,0.6,1.4c1.1,2.9,1.5,5.9,2.2,8.9c0.2,0.8,0.4,1.6,0.7,2.4c4.5,12.9,7.7,26.2,12,39.2
			c0,0.1,0.1,0.2,0.1,0.4c1,2.6,1.1,5.5,1.7,8.2c0.2,0.8,0.4,1.5,0.7,2.3c4.8,13.6,8.5,27.5,12.4,41.3c0.1,0.3,0.3,0.6,0.4,1
			c1.4,3.7,2,7.6,2.8,11.4c0,0.1,0.1,0.1,0.1,0.2c0.9,2.8,2.4,5.4,2.2,7.6c0.3-1.9,0.7-4.9,1.9-7.6c0-0.1,0.1-0.2,0.1-0.2
			c0.9-3.8,1.5-7.7,2.8-11.4c0.1-0.3,0.2-0.7,0.4-1c3.7-14.7,8.4-29,12-43.7v-0.1c0.6-2.8,1.7-5.4,2.5-8.2c0.1-0.2,0.1-0.5,0.2-0.7
			c3.9-13.7,8-27.3,11.5-41.1c0-0.2,0.1-0.3,0.1-0.5c0.5-3,1.7-5.9,2.5-8.8c0.1-0.3,0.2-0.7,0.3-1c3.7-12.5,6.9-25.1,10.9-37.6
			c0.3-0.8,0.5-1.7,0.7-2.6c0.7-3,0.9-6.1,1.5-9.1c0-0.1,0.1-0.3,0.1-0.4c3.4-16.5,0-31.2-11.4-43.7c-0.3-0.3-0.6-0.7-1-1
			c-1.4-1.7-3.2-3.4-2.1-5.8c1.1-2.3,3.5-1.2,5.3-1.2c26.5,0,52.9-0.1,79.4,0c0.5,0.2,0.9,0.4,1.2,0.7l0,0
			C701.6,26.8,699.8,29.2,699.6,31.3z"/>
		<path class="st1" d="M1662.1,307.1c-22.8-37.2-45.1-74.8-67.7-112.1c-2-3.3-1.1-4.3,2-5.6c8.3-3.6,15.8-8.5,23-14
			c40.4-31.2,39.1-82.2,17.3-113.1c-18.6-26.3-45.5-36.9-76.9-37.2c-44.6-0.4-89.3-0.2-133.9-0.3c-0.1,0-0.1,0-0.1,0
			c-10-0.8-20-0.1-30.1-0.3c-0.9,0-2-0.2-2.8,0.3c-0.2,0.1-0.4,0.4-0.6,0.6l-0.1,0.1c-0.9,1.7,0.2,2.9,1.3,4
			c0.7,0.8,1.6,1.5,2.3,2.3c0.2,0.2,0.5,0.4,0.7,0.6l0,0c6.8,5.8,11.2,13.2,12.9,22c1.4,7.3,2.6,14.6,2.3,22c0,0.3,0,0.5,0,0.8
			c-0.2,2.6-0.1,5.2-0.1,7.8c0,0.5,0,1,0,1.5c-0.3,13.2-0.2,26.5,0,39.8c0,0.3,0,0.6,0,0.9c-0.1,2.9-0.1,5.7,0,8.6
			c0,0.2,0,0.3,0,0.5c-0.3,13.8-0.2,27.6,0,41.4v0.1c-0.1,2.8-0.1,5.5,0,8.3c0,0.1,0,0.3,0,0.4c-0.3,14.4-0.2,28.7,0,43.1
			c0,0.3,0,0.6,0,0.9c0,3.3-0.5,6.8,1.9,9.6l0,0c0,22.9,0.2,45.8-0.2,68.6c-0.3,17.1-5,32.6-20.3,42.8c-0.3,0.2-0.1,1.2-0.1,1.6
			h136.2c-21.4-13.7-23.2-33.6-23.1-54.3c0.1-26,0-51.9,0-77.9v-5.4c8.7,14.1,16.2,28.5,23.9,42.7c13.1,24,24.8,48.9,39.2,72.2
			c10.4,16.9,25.7,25,45.7,24.8c22.2-0.1,44.3-2.4,66.4-3.6c5.7-0.3,11.4-0.8,18.4-1.3C1684,337.3,1671.8,323.1,1662.1,307.1z
			 M1559,128.6c-2.7,28.8-23.6,51.5-53.3,57.3c0-36.5,0.1-72.5-0.1-108.5c0-3.7,1.8-3.6,4.4-3.6C1541.7,72.7,1562.2,95.6,1559,128.6
			z"/>
		<path class="st1" d="M876,355.4c-0.6,2.4-2.8,1.6-4.4,1.6c-20.9,0-42.1,2.2-62.6-0.5c-24.1-3.3-48.1-0.2-73.9-2.7
			c12.5-8.8,10.7-21,10.7-32.8c0-17.4,0.2-34.7-0.1-52.1c-0.2-12.1-8.8-19.1-19.9-17c-7.5,1.4-12.6,6.4-12.8,14.5
			c-0.8,23.5-0.8,47,0.1,70.5c0.2,6.6,3.9,12,10,17h-69.4c9.8-7.6,10.5-17.2,10.5-27.3c-0.2-28.8-0.1-57.6-0.1-86.4l0,0
			c-2.4-2.8-1.9-6.1-1.9-9.4c0-0.2,0-0.3,0-0.5c-0.4-14,0.4-28.1-0.5-42.1c-0.1-0.7-0.2-1.5-0.3-2.2c-0.5-2.2-1.2-4.2-2.2-6.2
			c-0.3-0.7-0.7-1.3-1.1-1.9c0.7-0.1,1.3-0.2,1.9,0c-1.5-1.6-2.1-4.7-4.7-4.8c-0.5,0-1,0-1.5,0.2c-0.1-1.3,0.1-2.4,1.4-3
			c0.6-0.4,1.2-0.7,1.8-1c2.2-0.9,4.6-1,7-1c9.7,0,19.3,0,29,0c4.6,0,9.2-0.6,13.6-1.8c6.5-1.8,7.9-0.7,8.3,5.9
			c0.1,1.8,0.1,3.5,0,5.3c0,0.1,0,0.3,0,0.4c0,2.6,0.2,5.2,0,7.8v0.4c0,11.3,0,22.6,0,33.8c0,8.2,0,8,7.4,5.1
			c19.5-7.7,38.5-7.4,56.7,4c0.9,0.7,1.8,1.4,2.7,2.1c3.2,2.6,6,5.4,8.4,8.8c0.5,0.7,1,1.5,1.5,2.2c4.3,7.5,5.1,15.8,5.1,24.2
			c0.1,21.5,0,43,0,64.5c0,4,0.1,7.9,2,11.6c1,1.9,1.7,4.4,4.2,4.6c2.8,0.2,4-2.4,5.2-4.4c1.7-2.9,2.5-6.2,2.6-9.4
			c0.7-29.2,0.9-58.3,0-87.5c0-1.1-0.4-2.2-0.6-3.2c-0.1-0.9-0.3-1.7-0.6-2.5c-1-3.3-3.1-6.1-5.4-8.7c-0.5-0.5-0.9-1-1.4-1.6
			c-2-6.2-1-8.1,5.3-8.4c11.4-0.4,22.8-0.2,34.2-0.1c5.1,0,10-0.5,14.9-2c8.7-2.7,10.3-1.4,10.9,7.9c0,0.9,0.1,1.8,0.1,2.6
			c0,0.2,0,0.4,0.1,0.6c0.5,3.7,1.7,7.4-2.1,10.3l0,0c0,28.8,0,57.6,0.1,86.4c0,9,0.8,17.7,8.6,23.8
			C876.3,352,876.4,353.8,876,355.4z"/>
		<path class="st1" d="M2133.9,354c10.1-7.6,10.9-17.3,10.8-27.4c-0.1-17.6,0-35.2-0.1-52.8c0-3.3,0-6.6-0.4-9.9
			c-1.2-8-5.4-12-12.9-12.4c-7.9-0.4-12.7,3.1-15,10.9c-1.2,4.1-1.1,8.3-1.1,12.4c-0.1,17.6,0,35.2,0,52.8c0,13.5,0.8,15.6,9.7,26.2
			c-22.6,0-44.7,0-68.6,0c12.6-9.5,10.2-22.4,10.3-34.7c0.1-16.9,0.2-33.9-0.1-50.8c-0.2-10.4-4.9-16.1-13.1-16.8
			c-9.3-0.9-15.4,4.5-15.8,15.1c-0.4,13-0.2,25.9-0.2,38.9c0,6.6,0.2,13.2,0,19.8c-0.3,10.6,0.2,20.8,11.1,28.7
			c-24.1,0-46.3,0-70.7,0c11.9-8.5,11-19.9,11-31.1c-0.1-23.5-0.2-47.1,0.1-70.6c0.1-9.8-1.2-18.8-10.2-25.9
			c20-2.4,39.5,2.9,58.4-4.7c0,5,0,9.5,0,13.8c1.8,1.1,2.3-0.3,3-0.9c17.4-16.8,43.5-16.8,60.9,0.2c2.6,2.5,3.7,2.7,6.5,0.2
			c17.5-15.3,48.3-17.3,67.8-4.8c11.7,7.5,17.5,18.2,17.7,31.9c0.2,20.5,0.4,40.9,0.2,61.3c-0.1,11.1-0.5,22.1,10.9,30.6
			C2180,354,2157.8,354,2133.9,354z"/>
		<path class="st1" d="M1133.8,240.5c22.7,27.5,20.9,74.8-3.9,100.6c-15.7,16.3-35.7,18.3-56.7,16.3c-2.4-0.2-3.1-2.1-3.8-4
			c-2.7-7.1-5.4-14.3-8.2-21.5c2.1-1.3,4-0.4,5.8-0.2c13.6,1.3,23.5-4.5,27.3-17.4c4.8-16.4,4.5-33-1.5-49.1
			c-4.3-11.4-13-15.8-23.9-13.2c-6.1,1.5-9.9,5.4-11.8,11.2c-1.7,5.1-1.9,10.3-1.9,15.6c0,35.2,0,70.4,0,105.5
			c0,10,0.2,19.9,10.8,27.4c-23.8,0-45.8,0-69,0c10.3-8.9,9.9-20.3,9.9-31.7c-0.1-41.8-0.1-83.6,0-125.3c0-4.9-0.2-9.6-1.1-14.4
			c-4.3-2-4.3-7.3-7.6-10.1c-2.3-4.9-1.9-5.9,3.7-6.1c9.4-0.4,18.8-0.2,28.3-0.1c6.8,0.1,13.6-0.2,20.1-2.5c2.9-1,6-1.2,7,2.5
			c1.6,6.2,5.1,4.8,8.9,2.6c15.3-8.5,31-8.2,47-2.4c3.5,1.3,6.8,3,10,5c2.6,1.9,5.7,3.2,8,5.4
			C1132.4,236.2,1134.7,237.6,1133.8,240.5z"/>
		<path class="st0" d="M273.3,128c-0.1,2.3,0,4.6,1.5,6.6c-3.2,2.9-7.1,1.9-10.7,1.9c-81.1,0.1-162.3,0-243.4,0.1
			c-3.2,0-6.7-1-9.3,2c-2.3,11.1-0.9,22.3-0.8,33.4c0,2.3,1.6,3.4,3.8,3.8c2.6,0.4,5.3,0.3,7.9,0.3c85.1,0,170.1,0,255.2,0
			c3.1,0,6.2-0.2,9.1,0.8c1.5,2.9,2.2,5.9,2.5,9.2c-3.5,3.2-7.9,2.2-11.9,2.2c-84.1,0.1-168.3,0-252.4,0.1
			c-15.6,0-14.7-1.1-14.5,14.7c0.1,8.5-1.4,17.1,1.1,25.5c2.6,2.9,6.1,1.9,9.3,1.9c90.7,0,181.4,0,272,0.1c3.7,0,7.5-0.8,10.8,1.8
			c0,2.3,0,4.6,1.6,6.5c-1.8,1.3-3.8,0.7-5.7,0.7c-97.7,0-195.4,0-293,0c-1.9,0-4,0.5-5.8-0.6c-0.2-2.2-0.5-4.3-0.5-6.5
			c0-67.3,0-134.5-0.2-201.8c0-5.1,0.7-7,6.5-7c229,0.2,458,0.1,687,0.1c2,0,3.9,0.1,5.9,0.2c0.3,0.3,0.4,0.5,0.3,0.8
			s-0.2,0.4-0.3,0.4c-26.1,0-52.2-0.1-78.3,0c-2.2,0-5.4-1.4-6.6,1.2c-1,2.1,2.5,3.3,3.2,5.3c-2.4,2.5-5.6,2.2-8.7,2.2
			c-26.3,0.1-52.7,0.1-79,0c-3,0-6.2,0.4-8.7-2.1c1.5-5.1,0.2-6.9-5.7-6.8c-30.4,0.3-60.8,0.1-91.2,0.2c-2.2,0-5.4-1.4-6.6,1.2
			c-0.9,2.1,2.5,3.2,3.2,5.3c-2.4,2.5-5.6,2.2-8.6,2.2c-22.5,0.1-45,0.1-67.5,0c-2.8,0-5.7,0.2-8.1-1.8c0-5.2-2.4-7.1-7.8-7.1
			c-31.5,0.2-63.1,0.1-94.6,0.2c-2.2,0-5.4-1.4-6.6,1.2c-0.9,2.1,2.5,3.2,3.2,5.3c-3.5,3.2-7.9,2.2-11.9,2.2
			c-65.2,0.1-130.4,0-195.7,0c-13.3,0-13.5,0-13.2,13.4c0.2,8.9-1.3,18,1.1,26.8C14,77,17.5,76,20.7,76c75.9,0.1,151.7,0,227.6,0
			c2.6,0,5.3-0.2,7.9,0.2c0.4,0.1,0.8,0.2,1.2,0.3c2.4,2.1,0.5,5.8,2.9,7.8c-3.1,3-7.1,1.9-10.7,1.9c-76.2,0.1-152.5,0-228.8,0.1
			c-3.2,0-6.7-0.9-9.4,1.7c-2.9,7.4-1.1,15.1-1.3,22.6c-0.1,4.7-1.3,9.6,1.4,14c2.9,2.5,6.3,1.5,9.5,1.5c80.5,0.1,160.9,0,241.4,0.1
			C266.1,126.2,270,125.4,273.3,128z"/>
		<path class="st1" d="M1947.2,235.2c-16.7-12.1-35.8-14.5-55.8-12.3c-55.4,6.2-70.8,55.9-57.5,93.4c9.3,26.3,34.3,41.6,66.1,41.6
			c5.9,0.1,11.8-0.5,17.7-1.5c27.4-4.5,47.8-23,54.1-49.1C1978.8,278.8,1969.6,251.4,1947.2,235.2z M1923.9,316.5
			c-3.1,8.5-8.6,14.1-18.1,14.9c-9.9,0.8-18.2-2.4-22.4-11.5c-8.4-18.4-9.6-37.7-3-56.9c3-8.6,9.8-13.2,19-13.7s16,3.5,20.6,11.4
			c4.5,7.8,6.8,18.9,6.8,33.1C1927,301.5,1926.6,309.2,1923.9,316.5z"/>
		<path class="st1" d="M1794.1,235.2c-17-12.6-36.7-14.5-57.1-12.3c-49.9,5.4-77.4,60.4-51.3,103.5c13.9,22.9,35.8,31,61.4,31.5
			c8,0.1,15.8-0.8,23.5-2.9c26.2-7.2,43.6-23.4,48.9-50.4C1824.9,276.7,1817.4,252.6,1794.1,235.2z M1771,316.2
			c-3.1,8.8-8.7,14.5-18.5,15.3c-10.2,0.8-18-3.1-22.7-12.4c-6-11.7-6.3-24.5-6.2-37.2c0-6.1,1-12.2,3.3-18
			c3.5-8.7,9.6-13.9,19.2-14.6c9.8-0.6,16.9,3.7,21.4,12.2c5.4,10.2,6.3,21.3,6.4,32.5C1773.9,301.6,1773.5,309,1771,316.2z"/>
		<path class="st1" d="M1256.7,330.7c-25.3,5-47.3-9.3-50.7-32.6c-0.9-6.1,0.5-7.8,6.8-7.6c24.6,0.4,49.2,0.2,73.9,0.1
			c2.1,0,5.5,1.7,5.1-3.3c-1.2-16.7-4.1-32.7-15.8-45.6l0,0c-0.9-6.4-6.2-8.5-10.7-11.5c-0.5-0.3-0.9-0.6-1.3-0.9
			c-24.5-12.4-49-12.4-73.5,0c-0.5,0.3-1,0.6-1.5,0.9c-4.9,2.8-10.5,4.9-12.1,11.4l0,0l0,0c-11.5,10.4-17.2,23.7-19,38.7
			c-3.5,28.5,7.3,60.1,38.4,71.2c27.2,9.7,54.7,8.9,82-0.5c2-0.7,3.9-1.2,4.8-3.9c3.1-9.5,6.5-18.9,10.3-29.8
			C1280.9,323.6,1269.2,328.3,1256.7,330.7z M1206.2,263.5c1.2-9,9.7-16.5,19.2-16.7c10.3-0.1,17,5.7,18.6,15.8
			c0.6,3.4-0.5,4.2-3.7,4.1c-5.3-0.2-10.6,0-15.8,0c-5.1,0-10.1-0.1-15.2,0C1207.1,266.7,1205.8,266.5,1206.2,263.5z"/>
		<path class="st1" d="M981.9,240.2c0,5.2,0,10.4,0,16.5c-10.2-6-20.4-9.6-31.5-10.7c-4.7-0.5-9.2,0.1-13.7,1.3
			c-3.5,0.9-6.7,2.9-6.9,7c-0.2,3.8,1.6,6.7,4.8,8.8c4.2,2.6,8.9,3.6,13.5,5c10.7,3.3,21.3,6.5,30.7,13.2
			c26.8,19.1,23.8,53.6-6.2,67.7c-19.3,9-39.8,10.1-60.6,8.1c-9.8-0.9-19.5-3.2-29.2-4.8c-2.3-0.4-4-1.1-4.4-3.9
			c-1.7-9.5-3.6-18.9-5.6-29.5c12.4,7.1,24.4,12.3,37.4,14.4c7,1.1,14,1.5,21,0c5.2-1.1,9.6-3.7,10.5-9.5c0.9-5.5-3.1-8.4-6.9-10.9
			c-6.8-4.4-14.6-6.9-22-10.3c-5.8-2.6-11.7-5.1-17.1-8.3c-22.8-13.2-26.8-32.7-11.5-54.1c1.4-6.8,7.8-8.1,12.4-11.3
			c16.2-9,33.8-9.9,51.6-8.6c9.3,0.7,18.7,1.7,27.9,3.8c3.8,0.9,7.2,2.2,7.5,6.9C983.9,234.2,984.2,237.5,981.9,240.2z"/>
		<path class="st1" d="M1390.7,256.2c-6.3-0.5-12.5-2-18.9-0.2c-11.6,3.2-17.8,10.8-17.8,22.6c0,15.4,0,30.8,0,46.1
			c0,16.6,0,16.6,9.1,29.3c-22.3,0-44.3,0-68.2,0c12.4-9.5,10.5-22.2,10.5-34.3c-0.1-26.4-0.3-52.7-0.4-79.1
			c-3.8-2.4-4.9-6.6-7.2-10c-2.5-5.4-2.1-6.5,3.7-6.8c9.7-0.4,19.3-0.2,29-0.1c5.5,0,10.9-0.5,16.3-1.9c7.6-2,8.4-1.3,9.1,7
			c0,1.4-0.2,2.9-0.3,4.6c2-1.4,3.2-3.2,4.7-4.6c7.8-6.9,17-9.6,27.3-8.3c2.5,0.3,5.3,0.7,7,3.1c0.8,5.8,3.3,11.4,0.1,17.6
			c-1.6,3.2-0.3,7.7-0.3,11.6C1394.2,255.1,1394.2,257.5,1390.7,256.2z"/>
		<path class="st1" d="M2000.6,147.5c0,16.7-0.1,33.4,0.1,50.1c0.1,4.1-1,5.5-5.1,5.1c-5.9-0.5-13.4,2.3-17.2-1.1
			c-3.8-3.5-1.2-11.2-1.2-17c-0.2-24.2,0.1-48.4-0.2-72.5c0-4.7,0.9-5.8,5.9-6.5c14.1-2,22.4,2.9,28.2,16.1
			c5.8,13.3,14.2,25.5,22.5,38c0-15.7,0.3-31.4-0.2-47c-0.2-6.1,1.7-7.2,7.3-7c16.4,0.4,16.4,0.1,16.4,16.3
			c0,25.1-0.1,50.1,0.1,75.2c0,4.3-1.1,5.6-5.4,5.6c-18.2,0.1-18.2,0.3-27.4-15.9c-7.5-13.3-15.1-26.5-22.7-39.7
			C2001.3,147.2,2001,147.4,2000.6,147.5z"/>
		<path class="st1" d="M2140.1,141.4c-2.4,0-4.9-0.2-7.2,0.1c-3.4,0.3-5-0.8-5.9-4.4c-1.7-6.9-6.8-10.7-13.8-11.4
			c-7.3-0.8-13.4,1.7-17.6,7.9c-6.9,10.2-6.8,31.4,0.1,41.6c4.2,6.2,10.1,8.1,17.1,7.4c7.2-0.7,12-4.8,13.8-11.4
			c1.1-4.4,3-5.6,7.2-5.3c5,0.4,10.1,0.2,15.2,0c3.1-0.1,3.6,1,3.3,3.8c-2.4,18.7-18.6,33.9-37.4,34.9c-29.8,1.6-48.4-16.1-49.4-47
			c-0.2-5.7,0.1-11.5,1.3-17.1c3.5-17.1,12.1-30.3,29.8-35.1c16.9-4.6,32.7-2.5,45.7,10.5c5.3,5.3,8.2,11.8,9.8,19.1
			c1,4.5,0.3,7.2-5.3,6.3C2144.6,141.2,2142.3,141.4,2140.1,141.4z"/>
		<path class="st2" d="M859.4,1.4c3.9,0.3,7.9-1,11.5,1.3c1.9,6.9,1.6,14.3,4.1,21c3,1.6,4.7,4.1,5.6,7.3c5.9,10.7,15,18.7,23,27.6
			c4.9,5.4,9.5,10.8,12.7,17.4c2.2,3.7,3.2,7.9,5.1,11.7c5.6,12.4,3.9,25.1,1.1,37.8c-1.6,3.7-1.6,7.9-3,11.6
			c-3,7.5-6.3,14.9-10.1,22c-1.1,2.1-2.2,4.4-4.3,5.7c-3.6,2.3-7.7,2.9-11.1,0.5c-3.3-2.3-0.8-5.6,0.2-8.3c2.9-7.3,6.9-14.1,9-21.8
			c0-3.5,0.8-6.8,2.5-9.9c3.9-11.7,0.6-22.7-3.6-33.6c-0.6-1.6-1.5-3.2-2-4.8c-0.6-5-3.5-8.3-8-10.5c-4.4-2.4-8.1-5.8-12.8-7.8
			c-6-2.5-6.8-2-6.8,4.4c0,1.5,0.1,3.1,0.2,4.6c0.1,2.9,0.1,5.9,0.1,8.8c0.3,13.2,0.3,26.4,0,39.6c0.1,3.3,0.2,6.6,0,9.9
			c-0.2,11.5,1.1,23-0.8,34.4c-0.5,1.2-1.4,1.8-2.7,1.9c-5.3-1.8-8.5-6.7-13.5-9.1c-2.2-1.1-1.6-3.3-0.2-5.1
			c2.9-7.1,0.8-14.6,1.5-21.9c-0.1-3.8-0.4-7.5-0.2-11.3c0.1-13-0.2-26,0.1-39c-0.2-3.3-0.1-6.6,0-9.9c-0.2-14.7-0.3-29.4,0-44.1
			c-0.1-3-0.2-6,1.8-8.5C859.2,16.2,859.3,8.8,859.4,1.4z"/>
		<path class="st0" d="M879.2,32.1c-0.4-3.3-2.6-5.7-4.2-8.4c172.5,0,345,0,517.5,0c9.2,0,18.5-0.1,27.7,0c1.9,0,4-0.8,5.6,1
			c-10.9,0-21.7,0-34.2,0c2.7,3.1,4.3,4.9,5.9,6.8c-2.8,2.8-6.5,2.2-10,2.2c-23.8,0.1-47.5,0-71.2,0c-141.2,0-282.3,0-423.5,0
			C888.2,33.8,883.5,34.4,879.2,32.1z"/>
		<path class="st1" d="M1966.1,154.5c0,14.1-0.3,28.1,0.1,42.2c0.2,5.2-1.5,6.5-6.3,6.1c-4.4-0.4-8.8-0.3-13.2,0
			c-4,0.2-5.7-0.5-5.7-5.2c0.2-28.8,0.2-57.6,0-86.3c0-4.4,1.2-5.7,5.5-5.4c4.8,0.4,9.7,0.4,14.5,0c4.2-0.3,5.1,1.3,5.1,5.2
			C1965.9,125.5,1966.1,140,1966.1,154.5z"/>
		<path class="st0" d="M859.1,23.6c0,2.8,0,5.6-0.1,8.4c-2.6,2.1-5.8,1.8-8.8,1.8c-47.6,0-95.1,0-142.7,0c-3.2,0-6.7,0.5-9.3-2.2
			c0.4-2.2,0.9-4.3,1.3-6.5c0-0.4,0-0.8,0-1.2c45.1-0.1,90.1-0.1,135.2-0.2C842.8,23.7,851,23.6,859.1,23.6z"/>
		<path class="st3" d="M2171.9,178.4c12.3,0,12.3,0,12.3,12.2c0,12,0,12-11.9,12c-12.7,0-12.7,0-12.7-12.6
			C2159.6,178.4,2159.6,178.4,2171.9,178.4z"/>
		<path class="st4" d="M1190.4,231.2c-5.3,2.4-9.8,5.7-13.4,10.3c-0.3-0.5-0.6-1.5-0.9-1.5c-14.1-0.3-28.3-1.2-42.4,0.5
			c-2.4-4.4-6.7-6.7-10.8-9.3c2.1-2.5,5.1-2.3,7.9-2.3c17.2-0.1,34.4-0.1,51.6,0C1185.3,228.9,1188.3,228.7,1190.4,231.2z"/>
		<path class="st5" d="M2247.8,134.8c-2.4,0-2.8-1.5-2.9-3.5c-0.1-2.9-0.2-5.7-0.4-8.5l0,0c-0.4-0.7-0.4-1.6-0.6-2.4
			c-0.2-0.7-0.2-1.4-0.2-2.1c-0.6,0.5-0.8,1.4-1.4,1.9c-1.1,3.6-2.1,7.1-3.4,10.6c-0.6,1.7-0.6,3.9-3.5,3.8
			c-2.7-0.1-3.2-1.7-3.8-3.7c-1.4-4.6-2.8-9.1-5-13.7c-0.3,4.8-0.7,9.5-0.9,14.3c-0.1,2.1-0.6,3.4-3,3.1c-2.5-0.3-1.7-2.3-1.6-3.6
			c0.3-5.7,0.9-11.4,1.2-17.1c0.1-2,0.4-3.6,2.9-3.3c2,0.2,4.4-1,5.4,2.2c1.3,4.4,3,8.6,5.1,14.3c1.7-4.8,3-8.5,4.1-12.2
			c0.9-3,2.3-4.7,6-4.4c4.2,0.3,2.7,3.3,3,5.3c0.6,5,0.8,10,1.2,15.1C2249.9,132.8,2250.8,134.8,2247.8,134.8z"/>
		<path class="st0" d="M0.6,238.9c99.3,0,198.6,0,298,0c2.2,0,4.4-0.1,6.6-0.1c0.8,0.8,1.4,1.7,1,2.9c-2.2-3.2-5.6-2-8.5-2
			c-96.7-0.1-193.4,0-290.1-0.1C5.3,239.5,2.9,240.3,0.6,238.9z"/>
		<path class="st4" d="M487.2,229.6c1.8,3.5,0.8,7.9,3.5,11.1c-8.4-2.3-17-0.6-25.5-1c-4.8-0.2-9.7,0-14.5-0.1
			c-2.2,0-4.4-0.1-5.8,2.1c2.5-4.1,1.9-9.1,3.7-13.4c10.5,1.2,21,0.5,31.5,0.7C482.5,229,484.9,228.9,487.2,229.6z"/>
		<path class="st6" d="M1299.6,230.9c1.8,3.3,3.6,6.5,5.4,9.8c-9.3-2.1-18.7-0.9-28.1-0.6c-0.3,0-0.6,1-0.9,1.5
			c-2.9-4.6-7-7.8-11.8-10.3c0.4-0.5,0.8-1.2,1.4-1.3C1277,228.5,1288.3,227.3,1299.6,230.9z"/>
		<path class="st7" d="M663.8,230.9c0,3.1,0,6.2,0,9.3c-10.1-1-20.3-0.7-30.4-0.2c1.3-3,2.7-5.9,2.8-9.3
			C645.5,227.8,654.7,227.7,663.8,230.9z"/>
		<path class="st8" d="M1390.7,256.2c1-0.4,2.6-0.6,2.4-1.8c-1.2-8,2.9-15.8,0.5-23.9c-0.7-2.2-0.1-4.8-0.1-7.2
			c4.4,6.2,11.1,5.9,17.6,6.3c0.8,0.1,1.5,0.7,2.2,1.2c0,3.1,0,6.2,0.1,9.4c-1.3-0.2-2.5-0.5-3.8-0.6c-14.4-0.3-14.4-0.3-15.1,13.8
			C1394.4,256.3,1394.4,258.7,1390.7,256.2z"/>
		<path class="st7" d="M896.1,231.1c-4.5,2.4-8.7,5-11.9,9.1c-6.1-0.8-12.3-1.2-18.4,0.3c1.3-3.3,1.5-6.5,0-9.8
			C876,228.1,886.1,227.2,896.1,231.1z"/>
		<path class="st9" d="M981.9,240.2c0-3.1,0-6.2,0-9.3c5.9-3.5,12.2-1.4,18.3-1.2c1.8,3.5,3.6,7,5.4,10.4
			C997.7,239.4,989.8,239.2,981.9,240.2z"/>
		<path class="st10" d="M2209.6,110.8c0.7,0,1.3-0.1,2,0c2.6,0.5,6.9-1.7,7.5,1.5c0.8,4.5-3.7,1.8-5.8,2.5c-2.3,0.8-1.5,2.4-1.5,3.7
			c-0.1,4.4,0,8.8-0.1,13.2c0,1.5,0.2,3.1-2.2,3.1c-2.1,0-2.5-1.3-2.5-3c0-4.4-0.1-8.8,0-13.2c0.1-2.7-0.6-4.1-3.6-3.9
			c-1.5,0.1-3.9,0.9-3.8-2.1c0.1-2.9,2.5-1.7,4-1.8C2205.7,110.7,2207.6,110.8,2209.6,110.8z"/>
		<path class="st5" d="M2244.5,115v7.8c-0.4-0.7-0.4-1.6-0.6-2.4c-0.2-0.7-0.2-1.4-0.2-2.1c-0.6,0.5-0.8,1.4-1.4,1.9
			C2242.1,118.5,2242.9,117.1,2244.5,115z"/>
		<path class="st11" d="M673.1,135.8c-2.6,0-5.3,0.2-7.9,0.3c0.9-3.2,1.9-6.5,2.8-9.7c2,1.4,4.2,1,6.4,1c59.4,0,118.8,0,178.2,0
			c2.2,0,4.3-0.5,6.5-0.7c0,3.2,0,6.3,0,9.5c-9.2-0.1-18.5-0.3-27.7-0.3H673.1V135.8z"/>
		<path class="st11" d="M859.2,85.8c-1.5-0.2-3-0.6-4.5-0.6c-56.8,0-113.7,0-170.5,0c-1.1,0-2.2,0.2-3.3,0.3c0.9-3,1.9-6.1,2.8-9.1
			c12.7,0.1,25.5,0.3,38.2,0.3c43.3,0,86.6,0,130,0c2.4,0,4.8-0.2,7.2-0.3C859.1,79.6,859.2,82.7,859.2,85.8z"/>
		<path class="st12" d="M627.2,88.4c0.3-2.6-1.1-3.3-3.5-3.3c-30.2,0.1-60.3,0.1-90.5,0.1c-0.8,0-1.6,0.6-2.4,0.9
			c-0.9-3.2-1.9-6.4-2.8-9.6c33.9,0,67.7,0.1,101.6,0.1C628.4,80.5,629.2,84.8,627.2,88.4z"/>
		<path class="st13" d="M438.5,89.8c-0.1-2.3,0.4-4.7-3.5-4.7c-27.1,0.2-54.2,0.1-81.2,0.2c-0.8,0-1.6,0.6-2.4,0.9
			c0.3-3.6-1.5-6.7-2.7-10c9.6,1.2,19.3,0.5,28.9,0.5c20.6,0.1,41.3-0.1,61.9-0.2C438.8,80.9,441,85.5,438.5,89.8z"/>
		<path class="st14" d="M613.6,136.2c-21.4-0.1-42.8-0.2-64.3-0.4c-2.1,0-3.3,0.6-3.1,2.9c-2-3.8-0.9-8.5-3.7-12.1
			c3.6,1.4,7.3,0.8,11,0.7c20.9-0.3,41.9,0.9,62.8-0.6C615.2,129.8,613.7,132.8,613.6,136.2z"/>
		<path class="st14" d="M426.5,138.6c0.2-3-1.8-2.9-3.9-2.9c-17.8,0-35.6,0-53.4,0c-2.1,0-4.1-0.2-3.8,2.9
			c-1.2-4.4-2.5-8.9-3.7-13.3c1.6,2.4,4.1,2,6.5,2c18.5,0,37.1,0,55.6,0c2.4,0,4.9,0.4,6.3-2.2C428.9,129.6,427.7,134.1,426.5,138.6
			z"/>
		<path class="st0" d="M8.1,230.7c2.4,0.2,4.8,0.5,7.2,0.5c93.3,0,186.7,0,280.1-0.1c2.4,0,5.3,1.5,7.2-1.5c1,0.6,1.1,1.6,1,2.6
			c-95.8,0-191.6,0-287.5-0.1C13.4,232.2,10.3,233.6,8.1,230.7z"/>
		<path class="st0" d="M275.9,137.4c-1.6-2.2-3.9-1.6-6-1.6c-85.5,0-171,0-256.5,0c-1.7,0-3.5,0.3-5.2,0.5c2.2-2.9,5.3-1.6,7.9-1.6
			c86.2-0.1,172.4-0.1,258.7-0.1C275.6,135.3,276.2,136.1,275.9,137.4z"/>
		<path class="st0" d="M8.1,126.5c2.2,1.3,4.7,0.8,7.1,0.8c83.4,0,166.8,0,250.1-0.1c2.3,0,5.4,1.7,6.9-1.9c1,0.6,1.2,1.6,1.1,2.7
			c-85.9,0-171.9,0-257.8-0.1C13,128,10.1,129.1,8.1,126.5z"/>
		<path class="st0" d="M261.3,87.3c-1.5-2.5-4-2.2-6.4-2.2c-80.3,0-160.7,0-241,0c-2,0-4-0.3-5.8,0.8c2.2-2.8,5.3-1.5,8-1.5
			c81.4-0.1,162.8-0.1,244.2-0.2C261.2,85.2,261.7,86.1,261.3,87.3z"/>
		<path class="st0" d="M599.1,186.2c-11.3,0-22.5-0.1-33.8-0.1c-1.9,0-4.7-1.1-4.5,2.6c-2-3.3-0.9-7.3-2.4-10.7
			c14.5-0.1,28.9-0.1,43.4-0.2C600.8,180.7,600,183.4,599.1,186.2z"/>
		<path class="st0" d="M414.3,186.5c-11.8-0.1-23.6-0.2-35.4-0.4c-0.9-2.7-1.7-5.5-2.5-8.2c13.1,0.1,26.3,0.1,39.4,0.2
			C415.2,180.9,414.8,183.7,414.3,186.5z"/>
		<path class="st15" d="M573,230.6c4.7,0.8,9.4,0.8,14.2,0.1c-2.8,3.6-1.5,8.4-3.5,12.2c-2.3-0.8-4.7-0.8-7,0
			C574.6,239.1,575.6,234.3,573,230.6z"/>
		<path class="st16" d="M473.8,186.2c-0.6,0-1.3,0-1.9,0c-3.3-0.1-6.7-0.2-10-0.2c-0.4,0-0.8,0-1.2,0c-0.4-2.8,1-5.4,1.5-8h8.9
			C472,180.7,472.9,183.5,473.8,186.2z"/>
		<path class="st12" d="M390.6,231.1c4,0,8-0.1,12-0.1c-0.8,3.5-1.6,7.1-2.4,10.6c-2.4-0.9-4.8-0.8-7.2,0
			C392.2,238.1,391.5,234.6,390.6,231.1z"/>
		<path class="st4" d="M662.6,186h-1.4c-3.1,0-6.1,0-9.2,0h-1.3c0.8-3.5,1.6-7,2.4-10.5c0.2,1,0.5,1.6,0.9,2c1,1,2.4,0.5,3.8,0.3
			c0.7-0.1,1.3-0.2,1.9,0C660.9,180.5,662.8,182.9,662.6,186z"/>
		<path class="st17" d="M397,252.9c-2.6-3.9-2.7-7.8-4-11.3L397,252.9z"/>
		<path class="st18" d="M1413.4,85.8c-2.3-1.1-4.8-0.6-7.1-0.6c-159.7,0-319.4,0-479.2,0.1c-2.5,0-5.8-1.8-7.5,1.9
			c-1.6-3.6-3.2-7.2-4.9-10.8c2.2,0.1,4.4,0.4,6.6,0.4c162.1,0,324.1,0,486.2,0c2,0,3.9-0.2,5.9-0.3
			C1413.4,79.6,1413.4,82.7,1413.4,85.8z"/>
		<path class="st18" d="M921.1,126.7c2.4,0.2,4.8,0.6,7.2,0.6c159.3,0,318.7,0,478,0c2.4,0,4.8,0.5,7.2-0.6c0,3.1,0,6.2-0.1,9.3
			c-2-0.1-3.9-0.3-5.9-0.3c-160.8,0-321.5,0-482.3,0c-2.2,0-4.4,0.1-6.6,0.2C919.7,133,918.3,129.3,921.1,126.7z"/>
		<path class="st0" d="M871,171.6c0.1,4,0.4,6.6,6,6.6c178.3-0.2,356.6-0.2,534.9-0.2c0.4,0,0.9-0.1,1.3-0.1c0,2.8,0.1,5.6,0.1,8.4
			c-2-0.1-3.9-0.2-5.9-0.2c-176.7,0-353.4,0-530.1,0.1c-2.7,0-6.4-1.8-7.9,2.6c-0.8,0.3-1.3,0.1-1.7-0.6c-0.3-5.5,0-11,0.7-16.5
			C869.3,171.6,870.1,171.6,871,171.6z"/>
		<path class="st0" d="M802.3,200.9c-2-2.8-1.7-6.1-0.8-8.8c1.7-5.1,0.4-6.1-4.8-6.1c-28,0.3-56,0.1-84.1,0.2c0-2.7,0-5.5,0.1-8.2
			c29.6,0,59.2-0.1,88.9,0.1c4,0,7-0.8,9.6-4.1c3.9-4.8,9-8.3,14.8-10.6c1.2,3.2-1.8,4-3.3,5.6c-4.6,5.5-11.8,8.4-14.8,15.5
			c-1.3,3-2.5,6-2.8,9.4C805,196.4,804.6,199.1,802.3,200.9z"/>
		<path class="st19" d="M811.6,240.3c-6.8-1.3-13.8-0.4-20.6-0.6c-1.2,0-2,0.6-2.2,1.9c-2.7-4.2-6.1-7.6-10.2-10.4
			c7.4,0,14.7,0,22.1-0.1c1.5,0,3.6,1.1,4.3-1.4C808.1,232.7,809.9,236.5,811.6,240.3z"/>
		<path class="st0" d="M8.1,76.3c1.7,0.2,3.5,0.5,5.2,0.5c80.1,0,160.1,0,240.1,0c1.3,0,2.6-0.2,3.9-0.3c-1.8,2.4-4.4,1.4-6.7,1.4
			C172,78,93.3,78,14.7,77.9C12.5,77.8,9.8,78.9,8.1,76.3z"/>
		<path class="st20" d="M1354.1,230.9c2.2,0,4.3,0,6.5,0c-2.1,1.7-4.3,3.4-6.5,5.1C1354.1,234.6,1354.1,232.7,1354.1,230.9z"/>
		<path class="st1" d="M802.3,200.9c1.6-4.6,1.1-9.4,2.6-14.1c3.2-9.7,12.1-14,18.7-20.5c0.9-0.9,2.2-1.5,2.4-2.9
			c9.7-5.7,19.9-6.9,30.7-3.8c-2.5,2.3,0.1,3.1,1.4,3.4c4.8,1.3,7.5,4.9,10.3,8.6c2.7,5.7,0.9,11.4-0.2,17
			c-1.1,3.8-3.3,6.9-5.4,10.2c-9.9,10.1-22.2,15.2-35.9,17.4c-4.9,0.8-9.4-1.3-14-2.4C807,211.4,803.5,207.1,802.3,200.9z"/>
		<path class="st21" d="M871.2,126.5c12.3,1.3,24.5,1.2,36.8,0.1c-3,2.6-2.7,6.1-2.6,9.5c-11.4-0.4-22.7-0.7-34.1,0.1
			C871.2,133,871.2,129.8,871.2,126.5z"/>
		<path class="st22" d="M901.4,85.8c-10.1-0.7-20.2-1.2-30.3,0.2c0-3.2,0-6.5,0-9.7c7.2-3.3,14.5-1.3,21.9-0.8
			C897.7,77.4,901.5,80,901.4,85.8z"/>
		<path class="st23" d="M812.9,213.9c13.8,3.2,26.1-1.6,38.1-7.3c4.4-2.1,8.1-5.7,12.1-8.6c0.5-0.5,0.9-0.5,1.3,0
			c-11.6,14.4-26.4,21.3-45.1,18.6C816.9,216.3,814.6,215.7,812.9,213.9z"/>
		<path class="st24" d="M864.3,198c-0.4,0-0.9,0-1.3,0c0.7-3.7,3.1-6.4,5.2-9.2c0.4,0,0.8,0.1,1.2,0.1
			C868.5,192.3,867,195.4,864.3,198z"/>
	</g>
</g>
</svg>
